<mxfile host="app.diagrams.net" modified="2024-08-22T02:25:42.611Z" agent="Mozilla/5.0 (Windows NT 10.0; Win64; x64) AppleWebKit/537.36 (KHTML, like Gecko) Chrome/127.0.0.0 Safari/537.36" version="24.7.1" etag="omBL_PnbTOW9G07fq5cr" type="github">
  <diagram name="第 1 页" id="wNz71g_6duYHTIFiYp_B">
    <mxGraphModel>
      <root>
        <mxCell id="0" />
        <mxCell id="1" parent="0" />
      </root>
    </mxGraphModel>
  </diagram>
</mxfile>
